<?xml version="1.0" encoding="utf-8"?>
<!-- Generator: Adobe Illustrator 21.1.0, SVG Export Plug-In . SVG Version: 6.00 Build 0)  -->
<svg version="1.1" id="Слой_1" xmlns="http://www.w3.org/2000/svg" xmlns:xlink="http://www.w3.org/1999/xlink" x="0px" y="0px"
	 viewBox="0 0 196.8955078 90.9831085" enable-background="new 0 0 196.8955078 90.9831085" xml:space="preserve">
<g>
	<path opacity="0.28" fill="#FFFFFF" d="M5.1586895,89.5129013l0.0000181,0.0000153
		c1.4773002,1.470192,12.8106337-1.1964722,14.4772997-4.4416656c3.1666679-9.6739273,31.1148129-12.6432343,38.2177429-0.3405991
		c7.3293304,12.6947784-8.77314-59.9260559-13.6950455-62.7677231l-0.0000191-0.0000095
		c-4.9219055-2.8416634-13.3398094,1.2229595-16.1814728,6.144865c0,0,2.3010139,28.4800739-23.6252308,43.8061447
		C1.944895,76.0878601,0.2367834,86.6712418,5.1586895,89.5129013z"/>
	<path opacity="0.5" fill="#FFFFFF" d="M129.8026733,34.3212509L129.8026733,34.3212509
		c-2.8416595-4.9219074,2.2622681-13.4290695,5.4903259-14.6244488c10.5740967-1.8558178,17.422226,0.1203251,26.6579742-13.884553
		c3.8158569,1.8614864,13.6766968-5.5795712,16.5183716-0.6576653l0,0C181.3110046,10.0764904,172.0485535,21,172.0485535,21
		c-12.2789001,0.0731354-23.4602661,8.6584721-18.7679138,16.785862
		C156.7958527,43.8743973,132.6443329,39.2431564,129.8026733,34.3212509z"/>
	<path opacity="0.5" fill="#FFFFFF" d="M145.0526733,60.7379189L145.0526733,60.7379189
		c-2.8416595-4.9219093,6.0465393-19.9438744,9.2745819-21.1392555c5.8911133,10.2036972,17.3710785,3.4683533,22.9958038-7.4995384
		c3.8158569,1.8614845,13.5546112-5.4497814,16.396286-0.527874l0,0c2.8416595,4.9219055-4.1289825,15.7480469-7.7547607,15.76828
		c-15.6422577,0.0872879-21.294342,10.1438255-16.0770721,19.1803894
		C173.6756744,73.0812225,147.8943329,65.6598206,145.0526733,60.7379189z"/>
	<linearGradient id="SVGID_1_" gradientUnits="userSpaceOnUse" x1="-17.3989754" y1="89.6720734" x2="181.2676849" y2="-9.6612587">
		<stop  offset="0" style="stop-color:#FFF8FF"/>
		<stop  offset="0.3115079" style="stop-color:#8DFFFF"/>
		<stop  offset="0.6984127" style="stop-color:#FFFF8D"/>
		<stop  offset="1" style="stop-color:#FFFFFF"/>
	</linearGradient>
	<path fill="url(#SVGID_1_)" d="M71.9693527,88.5129013l-0.0000229,0.0000153
		c-4.9219055,2.8416595-11.2739143,1.1396408-14.1155777-3.7822647L29.1870728,35.0785141
		c-2.8416634-4.9219074-1.1396465-11.2739182,3.7822609-14.1155834l0.0000153-0.0000095
		c4.9219055-2.8416634,11.2739182-1.1396465,14.1155815,3.782259l28.6666794,49.6521454
		C78.5932693,79.3192291,76.8912582,85.6712418,71.9693527,88.5129013z"/>
	<linearGradient id="SVGID_2_" gradientUnits="userSpaceOnUse" x1="-7.5323076" y1="109.4054108" x2="191.1343536" y2="10.0720749">
		<stop  offset="0" style="stop-color:#FFF8FF"/>
		<stop  offset="0.3115079" style="stop-color:#8DFFFF"/>
		<stop  offset="0.6984127" style="stop-color:#FFFF8D"/>
		<stop  offset="1" style="stop-color:#FFFFFF"/>
	</linearGradient>
	<path fill="url(#SVGID_2_)" d="M121.302681,88.5129013l-0.0000153,0.0000153
		c-4.9219055,2.8416595-11.2739182,1.1396408-14.1155853-3.7822647L78.5204086,35.0785141
		c-2.8416672-4.9219074-1.1396484-11.2739182,3.7822571-14.1155834l0.0000153-0.0000095
		c4.9219055-2.8416634,11.2739182-1.1396465,14.1155853,3.782259l28.6666794,49.6521454
		C127.9266052,79.3192291,126.2245865,85.6712418,121.302681,88.5129013z"/>
	<linearGradient id="SVGID_3_" gradientUnits="userSpaceOnUse" x1="2.3343589" y1="129.1387482" x2="201.0010223" y2="29.8054085">
		<stop  offset="0" style="stop-color:#FFF8FF"/>
		<stop  offset="0.3115079" style="stop-color:#8DFFFF"/>
		<stop  offset="0.6984127" style="stop-color:#FFFF8D"/>
		<stop  offset="1" style="stop-color:#FFFFFF"/>
	</linearGradient>
	<path fill="url(#SVGID_3_)" d="M170.6360168,88.5129013l-0.0000153,0.0000153
		c-4.9219055,2.8416595-11.2739258,1.1396408-14.1155853-3.7822647l-28.6666794-49.6521378
		c-2.8416595-4.9219074-1.1396408-11.2739182,3.7822647-14.1155834l0.0000153-0.0000095
		c4.9219055-2.8416634,11.2739105-1.1396465,14.1155853,3.782259l28.6666718,49.6521454
		C177.2599335,79.3192291,175.5579224,85.6712418,170.6360168,88.5129013z"/>
	<linearGradient id="SVGID_4_" gradientUnits="userSpaceOnUse" x1="-15.5281" y1="93.413826" x2="183.1385651" y2="-5.9195089">
		<stop  offset="0" style="stop-color:#FFF8FF"/>
		<stop  offset="0.3115079" style="stop-color:#8DFFFF"/>
		<stop  offset="0.6984127" style="stop-color:#FFFF8D"/>
		<stop  offset="1" style="stop-color:#FFFFFF"/>
	</linearGradient>
	<path fill="url(#SVGID_4_)" d="M10.3333435,90.9831085h-0.000021C4.6499953,90.9831085,0,86.3331146,0,80.6497879v-0.3333588
		c0-5.6833267,4.6499953-10.3333206,10.3333225-10.3333206h0.000021c5.6833286,0,10.3333225,4.6499939,10.3333225,10.3333206
		v0.3333588C20.666666,86.3331146,16.0166721,90.9831085,10.3333435,90.9831085z"/>
	<linearGradient id="SVGID_5_" gradientUnits="userSpaceOnUse" x1="-11.3422403" y1="101.7855453" x2="187.3244324" y2="2.4522099">
		<stop  offset="0" style="stop-color:#FFF8FF"/>
		<stop  offset="0.3115079" style="stop-color:#8DFFFF"/>
		<stop  offset="0.6984127" style="stop-color:#FFFF8D"/>
		<stop  offset="1" style="stop-color:#FFFFFF"/>
	</linearGradient>
	<path fill="url(#SVGID_5_)" d="M171.2288513,21h-0.0000153c-5.6833344,0-10.3333282-4.6499958-10.3333282-10.3333225v-0.3333549
		C160.8955078,4.6499953,165.5455017,0,171.2288361,0h0.0000153c5.6833344,0,10.3333282,4.6499953,10.3333282,10.3333225v0.3333549
		C181.5621796,16.3500042,176.9121857,21,171.2288513,21z"/>
	<linearGradient id="SVGID_6_" gradientUnits="userSpaceOnUse" x1="2.2526288" y1="128.9752808" x2="200.9192963" y2="29.6419487">
		<stop  offset="0" style="stop-color:#FFF8FF"/>
		<stop  offset="0.3115079" style="stop-color:#8DFFFF"/>
		<stop  offset="0.6984127" style="stop-color:#FFFF8D"/>
		<stop  offset="1" style="stop-color:#FFFFFF"/>
	</linearGradient>
	<path fill="url(#SVGID_6_)" d="M186.5621948,47.320507h-0.0000305c-5.6833191,0-10.333313-4.6499977-10.333313-10.3333244
		v-0.3333511c0-5.6833286,4.6499939-10.3333244,10.333313-10.3333244h0.0000305
		c5.6833191,0,10.333313,4.6499958,10.333313,10.3333244v0.3333511
		C196.8955078,42.6705093,192.2455139,47.320507,186.5621948,47.320507z"/>
</g>
</svg>
