<svg width="184" height="28" viewBox="0 0 184 28" fill="none" xmlns="http://www.w3.org/2000/svg">
<g clip-path="url(#clip0_39_2)">
<mask id="mask0_39_2" style="mask-type:luminance" maskUnits="userSpaceOnUse" x="0" y="0" width="184" height="28">
<path d="M184 0H0V28H184V0Z" fill="white"/>
</mask>
<g mask="url(#mask0_39_2)">
<path d="M183.756 1.39007C183.451 2.30007 183.187 3.10008 182.871 4.01008C182.638 4.67008 182.18 5.07007 181.448 5.11007C180.218 5.11007 175.593 5.16008 174.241 5.16008C173.011 5.23008 172.299 5.80008 172.075 6.99008C171.73 8.78008 171.415 10.5801 171.089 12.3801C170.601 15.0701 170.124 17.7701 169.605 20.4601C169.3 22.0501 169.829 22.7201 171.455 22.7301C172.055 22.7301 172.655 22.7401 173.245 22.7201C174.576 22.6601 175.461 21.9701 175.755 20.6801C176.04 19.2601 176.203 18.3101 176.426 17.1301C176.477 16.8901 176.386 16.8001 176.142 16.8101C175.725 16.8101 175.115 16.8201 174.708 16.8101C173.743 16.7701 173.631 16.4401 173.651 15.5101C173.661 14.6801 173.692 13.8501 173.682 13.0201C173.682 12.7001 173.814 12.6001 174.109 12.6001C175.278 12.6001 180.645 12.6401 181.265 12.6401C181.885 12.6401 182.241 13.0701 182.16 13.7401C182.058 14.5001 181.916 15.2501 181.784 16.0101C181.428 18.0201 181.072 20.0201 180.716 22.0301C180.462 23.4701 180.188 24.9101 179.944 26.3601C179.893 26.6601 179.791 26.7701 179.476 26.7601C178.734 26.7401 177.982 26.7601 177.24 26.7501C176.304 26.7301 176.04 26.4701 175.959 25.5601C175.938 25.3201 175.908 25.0301 175.877 24.7301C175.857 24.5501 175.603 24.5201 175.481 24.7101C174.647 26.0401 172.97 26.9301 171.781 27.0301C170.591 27.1301 169.453 27.0901 168.304 27.0301C166.982 26.9501 165.752 26.5901 164.868 25.5201C164.217 24.7401 163.994 23.8101 163.923 22.8401C163.831 21.5901 164.045 20.3701 164.258 19.1501C164.858 15.8001 165.458 12.4501 166.047 9.09007C166.301 7.66007 166.566 6.24008 167.196 4.91008C168.212 2.78008 169.91 1.54007 172.238 1.13007C173.184 0.97007 174.149 0.920072 175.105 0.890072C176.243 0.850072 177.392 0.890072 178.541 0.890072C180.188 0.890072 181.641 0.890072 183.288 0.890072C183.756 0.890072 183.908 1.01007 183.766 1.46007M20.3924 4.39007C20.677 6.46007 20.2195 8.49007 19.3656 10.4001C18.8268 11.6101 17.7594 12.5801 16.4582 12.8301C16.1736 12.8801 15.9703 12.8801 15.9906 13.1301C16.0008 13.3101 16.1024 13.3101 16.4074 13.4001C17.4443 13.7101 18.2169 14.3401 18.6235 15.3501C18.9285 16.1101 19.02 16.9101 18.9285 17.7101C18.7353 19.3901 18.5117 21.0801 17.9221 22.6801C17.0682 25.0201 15.3196 26.3001 12.8595 26.6901C10.9484 26.9901 9.02705 26.8401 7.10572 26.8701C6.77025 26.8701 6.44495 26.8701 6.10948 26.8701C4.33048 26.8701 2.56163 26.8701 0.782627 26.8701C0.447158 26.8701 0.365833 26.7901 0.426828 26.4601C0.823292 24.3101 1.19943 22.1601 1.57556 20.0101C2.22617 16.3401 2.87678 12.6601 3.52738 8.99008C3.97468 6.47008 4.42197 3.95008 4.86926 1.44008C4.92009 1.17008 4.95059 0.960074 5.33688 0.970074C8.88473 1.00007 12.4326 1.06007 15.9804 1.06007C18.5015 1.06007 20.128 2.37007 20.3924 4.38007M11.66 15.3901C10.5011 15.3901 9.47434 15.3901 8.37644 15.3701C8.07147 15.3701 7.92915 15.4501 7.87832 15.7601C7.49202 17.9301 7.09556 20.0901 6.69909 22.2501C6.6381 22.5601 6.74993 22.6501 7.0549 22.6501C8.11214 22.6501 9.90131 22.6301 10.9789 22.5901C11.8633 22.5601 12.4732 22.0401 12.6766 21.1801C12.9205 20.1201 13.2255 18.2901 13.4187 17.2201C13.6626 15.8401 12.8189 15.3801 11.66 15.3801M13.378 5.20007C12.3208 5.18007 11.2533 5.20007 10.1961 5.18007C9.88097 5.18007 9.75899 5.30007 9.70816 5.58007C9.38286 7.37007 9.05755 9.17008 8.72208 10.9601C8.67125 11.2201 8.75258 11.3101 9.01689 11.3101C9.73866 11.3101 11.2838 11.3001 11.9955 11.3001C13.2458 11.3001 13.9879 10.7101 14.2929 9.52008C14.5166 8.64008 14.6589 7.73007 14.791 6.83007C14.9435 5.74007 14.4861 5.22007 13.378 5.20007ZM86.0732 0.960072C84.3146 0.990072 82.5559 0.960074 80.8074 1.04007C79.3537 1.11007 78.2761 1.84007 77.6357 3.15007C77.3409 3.75007 77.0664 4.36008 76.8122 4.98008C76.1921 6.48008 75.389 8.29008 74.8706 9.49008C74.5961 10.1401 74.3928 10.6401 74.2911 11.0001C74.0573 11.7701 73.854 12.5101 73.671 13.2301C73.6202 13.4101 73.3254 13.3701 73.3254 13.1801C73.3254 13.0001 73.4575 11.2601 73.4575 11.0401C73.4779 10.5201 73.4982 10.0301 73.4575 9.25007C73.3457 7.30007 73.1729 5.35007 72.9696 3.40007C72.8374 2.10007 72.2885 1.30007 70.8958 1.10007C70.6315 1.06007 70.3773 1.01008 70.113 1.01008C68.517 0.990075 66.9311 0.990074 65.3351 0.970074C65.0606 0.970074 64.9691 1.08007 64.9285 1.34007C64.7455 2.38007 61.157 22.3401 60.4556 26.2601C60.3742 26.7101 60.4861 26.8601 60.9639 26.8701C62.3871 26.8701 64.7658 26.8801 65.1013 26.8801C65.4368 26.8801 65.6604 26.7501 65.7316 26.3601C66.25 23.3901 66.7482 20.4201 67.3276 17.4601C67.8359 14.8501 68.1714 12.2201 68.3442 9.56007C68.4153 8.55007 68.5068 7.55007 68.6187 6.54007C68.6288 6.42007 68.7711 6.31008 68.8423 6.19008C68.9643 6.30008 69.1066 6.39007 69.2083 6.51007C69.2489 6.56007 69.2286 6.67007 69.2388 6.75007C69.2896 7.30007 69.3404 7.85008 69.3912 8.41008C69.6047 10.7501 69.8182 13.0801 70.0418 15.4201C70.1638 16.7401 70.296 18.0501 70.4282 19.3601C70.4892 19.9701 70.7331 20.1901 71.3634 20.2201C71.8107 20.2501 72.5935 20.2401 73.0611 20.2401C73.7625 20.2401 74.0878 20.1101 74.3826 19.4301C74.9621 18.0801 80.1263 6.62008 80.1873 6.46008C80.3093 6.18008 80.8887 6.27008 80.7972 6.60008C80.4617 7.81008 80.1364 9.02007 79.801 10.2301C79.4553 11.4901 79.0487 12.7401 78.7946 14.0101C78.2558 16.7801 77.7983 19.5601 77.3002 22.3301C77.0359 23.8201 76.6598 25.8801 76.5988 26.2801C76.5276 26.6701 76.6699 26.8401 77.0156 26.8401C77.3612 26.8401 79.8518 26.8401 81.4478 26.8501C81.7833 26.8501 81.824 26.6001 81.8646 26.3601C82.3221 23.8101 85.9512 3.46007 86.3375 1.31007C86.3884 1.05007 86.3477 0.95007 86.0631 0.95007M60.9943 6.87007C60.6284 9.09007 59.012 18.2001 58.5749 20.5401C58.3817 21.5701 58.0463 22.5501 57.5482 23.4901C56.5113 25.4401 54.8542 26.5701 52.6889 26.9101C51.3572 27.1201 46.376 27.1301 45.2578 27.0301C44.6783 26.9801 44.0785 26.8101 43.5398 26.6001C41.9031 25.9601 41.1406 24.6801 40.9882 23.0101C40.8763 21.7301 41.0593 20.4701 41.283 19.2201C41.6794 17.0401 43.123 8.99007 43.4889 7.15007C43.7736 5.75007 44.2819 4.42007 45.1866 3.28007C46.4065 1.75007 48.0839 0.990075 49.995 0.830075C51.6927 0.690075 55.5658 0.760075 57.1822 0.940076C58.9409 1.13008 60.4454 2.18007 60.8927 3.96007C61.1367 4.92007 61.157 5.90007 61.0045 6.87007M55.4337 6.60008C55.5455 5.59008 55.0372 5.06007 54.0003 5.01007C53.0549 4.97007 52.1095 4.97007 51.1641 5.01007C50.239 5.05007 49.5782 5.52008 49.2631 6.41008C49.1614 6.70008 49.0801 7.00007 49.0293 7.31007C48.5413 10.0201 48.0534 12.7301 47.5654 15.4401C47.2401 17.2801 46.9046 19.1301 46.5793 20.9701C46.376 22.1201 46.9351 22.8001 48.1347 22.8401C48.5515 22.8501 50.1068 22.8401 50.4728 22.8401C51.8858 22.8201 52.6381 22.2401 52.9024 20.8801C53.2277 19.1701 53.5225 17.4501 53.8275 15.7401C54.1833 13.7801 54.5391 11.8301 54.8847 9.87007C55.0779 8.78007 55.3015 7.69007 55.4235 6.59007M40.551 3.94008C40.795 4.90008 40.8153 5.88008 40.6629 6.85008C40.2969 9.07008 38.6805 18.1801 38.2434 20.5201C38.0503 21.5501 37.7148 22.5301 37.2167 23.4701C36.1798 25.4201 34.5227 26.5501 32.3574 26.8901C31.0257 27.1001 26.0445 27.1101 24.9263 27.0101C24.3468 26.9601 23.7471 26.7901 23.2083 26.5801C21.5716 25.9401 20.8091 24.6601 20.6567 22.9901C20.5448 21.7101 20.7278 20.4501 20.9515 19.2001C21.3479 17.0201 22.7915 8.97008 23.1574 7.13008C23.4421 5.73008 23.9504 4.40007 24.8551 3.26008C26.075 1.73008 27.7524 0.970071 29.6635 0.810071C31.3612 0.670071 35.2343 0.740071 36.8507 0.920071C38.6094 1.11007 40.1139 2.16008 40.5612 3.94008M35.092 6.59007C35.2038 5.58007 34.6956 5.05007 33.6587 5.00007C32.7132 4.96007 31.7678 4.96007 30.8224 5.00007C29.8973 5.04007 29.2366 5.51007 28.9214 6.40007C28.8198 6.69007 28.7384 6.99008 28.6876 7.30008C28.1996 10.0101 27.7117 12.7201 27.2237 15.4301C26.8984 17.2701 26.563 19.1201 26.2377 20.9601C26.0343 22.1101 26.5935 22.7901 27.793 22.8301C28.2098 22.8401 29.7652 22.8301 30.1311 22.8301C31.5442 22.8101 32.2964 22.2301 32.5608 20.8701C32.8861 19.1601 33.1809 17.4401 33.4858 15.7301C33.8416 13.7701 34.1974 11.8201 34.5431 9.86007C34.7362 8.77007 34.9599 7.68007 35.0819 6.58007M138.122 2.04007C138.305 4.30007 139.23 16.2701 140.023 26.3801C140.053 26.7301 139.972 26.8301 139.616 26.8201C138.356 26.8001 137.095 26.8201 135.835 26.8201C134.737 26.8201 134.32 26.3901 134.269 25.3001C134.218 24.1301 134.157 22.9501 134.096 21.7801C134.066 21.2601 134.015 21.2001 133.466 21.2001C131.819 21.2001 130.182 21.2001 128.536 21.2001C128.109 21.2001 127.865 21.3601 127.712 21.7501C127.214 23.0101 126.685 24.2601 126.177 25.5101C125.811 26.4101 125.13 26.8201 124.164 26.8201C121.511 26.8201 118.858 26.8201 116.205 26.8201C116.011 26.8201 115.808 26.7901 115.615 26.7701C114.639 26.7101 114.192 26.1601 113.958 25.2501C113.714 24.3001 113.378 23.1801 113.206 22.4401C113.063 21.8101 113.084 21.5901 113.582 21.1601C114.09 20.7301 116.743 18.5001 117.109 18.2001C117.475 17.9001 117.821 18.0501 117.984 18.6201C118.299 19.7401 118.848 21.6501 119.244 23.0301C119.549 24.0601 119.844 25.0901 120.149 26.1201C120.189 26.1201 120.23 26.1201 120.271 26.1201C120.627 25.3001 120.993 24.4801 121.348 23.6601C124.439 16.5501 130.589 2.43007 130.853 1.83007C131.118 1.23007 131.677 0.910077 132.378 0.910077C133.893 0.910077 135.397 0.900077 136.902 0.910077C137.725 0.910077 138.081 1.25007 138.142 2.06007M133.7 9.52008C133.73 8.51008 133.883 6.72007 133.883 6.51007C133.883 6.31007 133.537 6.24007 133.496 6.45007C133.456 6.66007 132.307 10.0901 131.677 11.8201C131.118 13.3701 130.487 14.8901 129.888 16.4301C129.674 16.9801 129.725 17.0601 130.294 17.0601C131.26 17.0601 132.216 17.0601 133.181 17.0601C133.862 17.0601 133.903 17.0101 133.883 16.3201C133.822 14.7201 133.771 13.1301 133.7 11.3401C133.7 10.8601 133.69 10.1901 133.7 9.52008ZM164.085 0.940076C162.499 0.940076 160.954 0.940076 159.907 0.940076C159.368 0.940076 159.155 1.20007 159.063 1.72007C158.636 4.13007 158.24 6.29008 157.813 8.69008C157.498 10.4701 157.111 12.2401 156.898 14.0401C156.624 16.3201 156.502 18.6901 156.38 20.9901C156.359 21.3101 155.892 21.3401 155.861 20.9701C155.18 12.9001 154.804 8.02007 154.367 2.77007C154.255 1.46007 153.655 0.940076 152.588 0.940076C151.134 0.940076 147.586 0.960075 146.732 0.940076C146.376 0.930075 146.254 1.05007 146.204 1.39007C146.061 2.37007 145.868 3.35007 145.695 4.33007C145.187 7.17007 142.147 24.2601 141.792 26.2801C141.69 26.8301 141.71 26.8301 142.259 26.8301C143.5 26.8301 144.75 26.8301 145.99 26.8301C147.078 26.8301 147.058 26.8301 147.241 25.7801C147.576 23.8001 149.04 16.0501 149.294 14.1301C149.548 12.1701 149.65 10.2001 149.812 8.23007C149.863 7.66007 149.884 7.09008 149.945 6.52008C149.975 6.23008 150.504 6.26008 150.514 6.55008C150.605 7.93008 150.748 9.59007 150.849 10.9701C151.043 13.6401 151.683 22.6501 151.835 24.4801C151.957 25.8801 152.639 26.5601 154.062 26.7201C154.57 26.7801 155.089 26.8201 155.597 26.8201C156.857 26.8301 158.118 26.8201 159.378 26.8201C159.948 26.8201 159.958 26.8201 160.06 26.2601C160.344 24.6701 163.882 4.68007 164.482 1.38007C164.553 1.00007 164.441 0.930073 164.095 0.930073M100.519 11.5501C100.183 11.5501 95.7104 11.5501 93.3011 11.5501C92.8233 11.5501 92.8131 11.5501 92.8945 11.0901C93.2096 9.31007 93.5552 7.53007 93.85 5.75007C93.9212 5.33007 94.1042 5.25007 94.5006 5.25007C96.4321 5.26007 98.8516 5.25007 100.275 5.25007C101.698 5.25007 100.407 0.930073 99.8173 0.930073H89.7736C89.123 0.930073 89.1331 0.930069 89.0111 1.59007C88.7367 3.16007 86.2156 17.3001 85.8801 19.2601C85.6259 20.6901 85.3616 22.1201 85.7174 23.5801C85.9919 24.6701 86.5917 25.5001 87.5981 26.0301C88.7875 26.6501 90.0989 26.7901 91.4103 26.8101C94.3075 26.8501 97.2149 26.8201 100.112 26.8301C100.458 26.8301 100.529 26.7001 100.529 26.4101C100.529 25.6601 100.549 24.9101 100.57 24.1601C100.6 22.7801 100.336 22.5101 98.9532 22.5101C97.0827 22.5101 95.2021 22.5101 93.3316 22.5101C92.9656 22.5101 92.5997 22.4901 92.2439 22.4301C91.5627 22.3301 91.1968 21.9101 91.1764 21.2301C91.1764 20.9201 91.1764 20.6101 91.2374 20.3001C91.4713 18.9001 91.7457 17.5101 91.9592 16.1101C92.0202 15.6901 92.1828 15.5801 92.5996 15.5901C94.5515 15.6101 96.5135 15.6001 98.4653 15.5901C99.3294 15.5901 99.8275 15.2401 100.112 14.4301C100.387 13.6501 100.814 12.3501 100.905 12.0401C100.986 11.7201 100.844 11.5601 100.509 11.5601M110.552 6.80008C109.454 6.53008 108.041 6.33007 107.045 6.23007C106.496 6.18007 106.242 6.32008 106.171 6.74008C105.774 9.10008 104.931 14.0301 104.504 16.5001C104.372 17.2601 104.921 17.1301 105.246 16.8101C107.32 14.7701 109.79 12.3301 110.176 11.8201C110.563 11.3101 110.685 11.0701 110.817 10.4601C110.949 9.85008 111.101 8.65008 111.233 7.91008C111.366 7.17008 111.142 6.94008 110.563 6.80008" fill="#171717"/>
<path d="M103.182 0.970177C102.532 1.01018 102.267 1.48017 102.44 2.38017C102.593 3.17017 103.121 4.02017 104.138 4.17017C107.208 4.61017 112.006 5.33018 115.341 5.97018C116.713 6.23018 116.764 6.69018 115.92 7.71018C113.318 10.8802 108.865 16.1902 104.016 21.5002C102.379 23.3002 102.562 24.8302 103.203 26.0002C103.589 26.7002 104.372 26.8302 104.809 26.4702C111.366 20.9802 120.332 12.9202 124.734 7.33018C127.072 4.37018 126.503 1.43017 122.446 1.06017C119.407 0.780173 116.083 0.680176 112.87 0.680176C109.292 0.680176 105.866 0.810175 103.162 0.960175" fill="url(#paint0_linear_39_2)"/>
</g>
</g>
<defs>
<linearGradient id="paint0_linear_39_2" x1="102.776" y1="26.9493" x2="126.935" y2="2.43118" gradientUnits="userSpaceOnUse">
<stop stop-color="#00DDFF"/>
<stop offset="0.48559" stop-color="#BB33FF"/>
<stop offset="0.839546" stop-color="#FF0080"/>
</linearGradient>
<clipPath id="clip0_39_2">
<rect width="184" height="28" fill="white"/>
</clipPath>
</defs>
</svg>
