<svg width="40" height="40" viewBox="0 0 40 40" fill="none" xmlns="http://www.w3.org/2000/svg">
<path fill-rule="evenodd" clip-rule="evenodd" d="M19.3432 3.46666C19.5507 3.37771 19.7741 3.33185 19.9998 3.33185C20.2256 3.33185 20.449 3.37771 20.6565 3.46666L31.3132 8.035C31.9129 8.29209 32.424 8.71956 32.7831 9.26439C33.1422 9.80923 33.3334 10.4475 33.3332 11.1V22.5333C33.333 24.5899 32.7892 26.6098 31.7568 28.3885C30.7245 30.1671 29.2404 31.6413 27.4548 32.6617L20.8265 36.4483C20.5747 36.5921 20.2898 36.6678 19.9998 36.6678C19.7099 36.6678 19.4249 36.5921 19.1732 36.4483L12.5448 32.6617C10.7588 31.641 9.27433 30.1663 8.24199 28.387C7.20965 26.6077 6.66612 24.5871 6.6665 22.53V11.1C6.66658 10.4478 6.858 9.80987 7.21705 9.26536C7.57611 8.72085 8.08703 8.29365 8.6865 8.03666L19.3432 3.46666ZM26.1782 17.845C26.4818 17.5307 26.6498 17.1097 26.646 16.6727C26.6422 16.2357 26.4669 15.8176 26.1579 15.5086C25.8489 15.1996 25.4308 15.0243 24.9938 15.0205C24.5568 15.0167 24.1358 15.1847 23.8215 15.4883L18.3332 20.9767L16.1782 18.8217C15.8638 18.5181 15.4428 18.3501 15.0058 18.3539C14.5688 18.3577 14.1508 18.533 13.8418 18.842C13.5328 19.151 13.3575 19.569 13.3537 20.006C13.3499 20.443 13.5179 20.864 13.8215 21.1783L17.1548 24.5117C17.4674 24.8241 17.8912 24.9996 18.3332 24.9996C18.7751 24.9996 19.199 24.8241 19.5115 24.5117L26.1782 17.845Z" fill="white"/>
</svg>
