<svg width="40" height="40" viewBox="0 0 40 40" fill="none" xmlns="http://www.w3.org/2000/svg">
<path d="M7 8C6.20435 8 5.44129 8.31607 4.87868 8.87868C4.31607 9.44129 4 10.2044 4 11V25C4 25.7956 4.31607 26.5587 4.87868 27.1213C5.44129 27.6839 6.20435 28 7 28H29C29.7956 28 30.5587 27.6839 31.1213 27.1213C31.6839 26.5587 32 25.7956 32 25V11C32 10.2044 31.6839 9.44129 31.1213 8.87868C30.5587 8.31607 29.7956 8 29 8H7ZM12 10V12C12 13.0609 11.5786 14.0783 10.8284 14.8284C10.0783 15.5786 9.06087 16 8 16H6V14H8C8.53043 14 9.03914 13.7893 9.41421 13.4142C9.78929 13.0391 10 12.5304 10 12V10H12ZM18 21.5C17.0717 21.5 16.1815 21.1313 15.5251 20.4749C14.8687 19.8185 14.5 18.9283 14.5 18C14.5 17.0717 14.8687 16.1815 15.5251 15.5251C16.1815 14.8687 17.0717 14.5 18 14.5C18.9283 14.5 19.8185 14.8687 20.4749 15.5251C21.1313 16.1815 21.5 17.0717 21.5 18C21.5 18.9283 21.1313 19.8185 20.4749 20.4749C19.8185 21.1313 18.9283 21.5 18 21.5ZM6 22V20H8C9.06087 20 10.0783 20.4214 10.8284 21.1716C11.5786 21.9217 12 22.9391 12 24V26H10V24C10 23.4696 9.78929 22.9609 9.41421 22.5858C9.03914 22.2107 8.53043 22 8 22H6ZM28 22C27.4696 22 26.9609 22.2107 26.5858 22.5858C26.2107 22.9609 26 23.4696 26 24V26H24V24C24 22.9391 24.4214 21.9217 25.1716 21.1716C25.9217 20.4214 26.9391 20 28 20H30V22H28ZM28 14H30V16H28C26.9391 16 25.9217 15.5786 25.1716 14.8284C24.4214 14.0783 24 13.0609 24 12V10H26V12C26 12.5304 26.2107 13.0391 26.5858 13.4142C26.9609 13.7893 27.4696 14 28 14ZM34 25C34 26.3261 33.4732 27.5979 32.5355 28.5355C31.5979 29.4732 30.3261 30 29 30H8.17C8.37688 30.5852 8.76016 31.0917 9.26702 31.4499C9.77387 31.8081 10.3793 32.0003 11 32H29C30.8565 32 32.637 31.2625 33.9497 29.9497C35.2625 28.637 36 26.8565 36 25V15C36.0003 14.3793 35.8081 13.7739 35.4499 13.267C35.0917 12.7602 34.5852 12.3769 34 12.17V25Z" fill="white"/>
</svg>
