<svg width="35" height="35" viewBox="0 0 35 35" fill="none" xmlns="http://www.w3.org/2000/svg">
<path d="M16.0415 20.4167V32.0834H10.2082C9.04785 32.0834 7.93505 31.6224 7.11458 30.8019C6.29411 29.9815 5.83317 28.8687 5.83317 27.7084V21.875C5.83317 21.4882 5.98682 21.1173 6.26031 20.8438C6.5338 20.5703 6.90473 20.4167 7.2915 20.4167H16.0415ZM27.7082 20.4167C28.0949 20.4167 28.4659 20.5703 28.7394 20.8438C29.0129 21.1173 29.1665 21.4882 29.1665 21.875V27.7084C29.1665 28.8687 28.7056 29.9815 27.8851 30.8019C27.0646 31.6224 25.9518 32.0834 24.7915 32.0834H18.9582V20.4167H27.7082ZM24.0623 2.91669C24.9235 2.91651 25.7707 3.13422 26.5251 3.54956C27.2795 3.96489 27.9165 4.56435 28.3769 5.29212C28.8373 6.01989 29.1061 6.85231 29.1582 7.7119C29.2103 8.57148 29.0441 9.43029 28.675 10.2084H29.1665C29.9401 10.2084 30.6819 10.5156 31.2289 11.0626C31.7759 11.6096 32.0832 12.3515 32.0832 13.125V14.5834C32.0832 15.3569 31.7759 16.0988 31.2289 16.6457C30.6819 17.1927 29.9401 17.5 29.1665 17.5H18.9582V10.2084H16.0415V17.5H5.83317C5.05962 17.5 4.31776 17.1927 3.77078 16.6457C3.22379 16.0988 2.9165 15.3569 2.9165 14.5834V13.125C2.9165 12.3515 3.22379 11.6096 3.77078 11.0626C4.31776 10.5156 5.05962 10.2084 5.83317 10.2084H6.32463C6.00071 9.52462 5.83284 8.77743 5.83317 8.02085C5.83317 5.2019 8.11838 2.91669 10.9125 2.91669C13.4719 2.87294 15.7425 4.50919 17.3015 7.19544L17.4998 7.54981C19.0063 4.75856 21.2332 3.00856 23.7575 2.91961L24.0623 2.91669ZM10.9373 5.83336C10.3572 5.83336 9.80078 6.06382 9.39054 6.47406C8.9803 6.88429 8.74984 7.44069 8.74984 8.02085C8.74984 8.60102 8.9803 9.15742 9.39054 9.56765C9.80078 9.97789 10.3572 10.2084 10.9373 10.2084H15.5209C14.4403 7.43023 12.6786 5.80419 10.9373 5.83336ZM24.0375 5.83336C22.3167 5.80419 20.5594 7.43169 19.4788 10.2084H24.0623C24.6425 10.2051 25.1976 9.97145 25.6055 9.55889C26.0134 9.14633 26.2407 8.58862 26.2374 8.00846C26.2342 7.4283 26.0005 6.87321 25.588 6.46529C25.1754 6.05738 24.6177 5.83007 24.0375 5.83336Z" fill="white"/>
</svg>
