<svg width="279" height="75" viewBox="0 0 279 75" fill="none" xmlns="http://www.w3.org/2000/svg">
<path d="M53.2539 18.6396H47.7754L47.7461 15.6221H52.3457C53.1562 15.6221 53.8203 15.5195 54.3379 15.3145C54.8555 15.0996 55.2412 14.792 55.4951 14.3916C55.7588 13.9814 55.8906 13.4834 55.8906 12.8975C55.8906 12.2334 55.7637 11.6963 55.5098 11.2861C55.2656 10.876 54.8799 10.5781 54.3525 10.3926C53.835 10.207 53.166 10.1143 52.3457 10.1143H49.2988V28H44.9043V6.67188H52.3457C53.5859 6.67188 54.6943 6.78906 55.6709 7.02344C56.6572 7.25781 57.4922 7.61426 58.1758 8.09277C58.8594 8.57129 59.3818 9.17676 59.7432 9.90918C60.1045 10.6318 60.2852 11.4912 60.2852 12.4873C60.2852 13.3662 60.085 14.1768 59.6846 14.9189C59.2939 15.6611 58.6738 16.2666 57.8242 16.7354C56.9844 17.2041 55.8857 17.4629 54.5283 17.5117L53.2539 18.6396ZM53.0635 28H46.5742L48.2881 24.5723H53.0635C53.835 24.5723 54.4648 24.4502 54.9531 24.2061C55.4414 23.9521 55.8027 23.6104 56.0371 23.1807C56.2715 22.751 56.3887 22.2578 56.3887 21.7012C56.3887 21.0762 56.2812 20.5342 56.0664 20.0752C55.8613 19.6162 55.5293 19.2646 55.0703 19.0205C54.6113 18.7666 54.0059 18.6396 53.2539 18.6396H49.0205L49.0498 15.6221H54.3232L55.334 16.8086C56.6328 16.7891 57.6777 17.0186 58.4688 17.4971C59.2695 17.9658 59.8506 18.5762 60.2119 19.3281C60.583 20.0801 60.7686 20.8857 60.7686 21.7451C60.7686 23.1123 60.4707 24.2646 59.875 25.2021C59.2793 26.1299 58.4053 26.8281 57.2529 27.2969C56.1104 27.7656 54.7139 28 53.0635 28ZM78.376 24.5723V28H67.0234V24.5723H78.376ZM68.459 6.67188V28H64.0645V6.67188H68.459ZM76.8965 15.3584V18.6982H67.0234V15.3584H76.8965ZM78.3613 6.67188V10.1143H67.0234V6.67188H78.3613ZM92.043 22.4189C92.043 22.0381 91.9844 21.6963 91.8672 21.3936C91.7598 21.0811 91.5547 20.7979 91.252 20.5439C90.9492 20.2803 90.5244 20.0215 89.9775 19.7676C89.4307 19.5137 88.7227 19.25 87.8535 18.9766C86.8867 18.6641 85.9688 18.3125 85.0996 17.9219C84.2402 17.5312 83.4785 17.0771 82.8145 16.5596C82.1602 16.0322 81.6426 15.4219 81.2617 14.7285C80.8906 14.0352 80.7051 13.2295 80.7051 12.3115C80.7051 11.4229 80.9004 10.6172 81.291 9.89453C81.6816 9.16211 82.2285 8.53711 82.9316 8.01953C83.6348 7.49219 84.4648 7.08691 85.4219 6.80371C86.3887 6.52051 87.4482 6.37891 88.6006 6.37891C90.1729 6.37891 91.5449 6.66211 92.7168 7.22852C93.8887 7.79492 94.7969 8.57129 95.4414 9.55762C96.0957 10.5439 96.4229 11.6719 96.4229 12.9414H92.0576C92.0576 12.3164 91.9258 11.7695 91.6621 11.3008C91.4082 10.8223 91.0176 10.4463 90.4902 10.1729C89.9727 9.89941 89.3184 9.7627 88.5273 9.7627C87.7656 9.7627 87.1309 9.87988 86.623 10.1143C86.1152 10.3389 85.7344 10.6465 85.4805 11.0371C85.2266 11.418 85.0996 11.8477 85.0996 12.3262C85.0996 12.6875 85.1875 13.0146 85.3633 13.3076C85.5488 13.6006 85.8223 13.874 86.1836 14.1279C86.5449 14.3818 86.9893 14.6211 87.5166 14.8457C88.0439 15.0703 88.6543 15.29 89.3477 15.5049C90.5098 15.8564 91.5303 16.252 92.4092 16.6914C93.2979 17.1309 94.04 17.624 94.6357 18.1709C95.2314 18.7178 95.6807 19.3379 95.9834 20.0312C96.2861 20.7246 96.4375 21.5107 96.4375 22.3896C96.4375 23.3174 96.2568 24.1475 95.8955 24.8799C95.5342 25.6123 95.0117 26.2324 94.3281 26.7402C93.6445 27.248 92.8291 27.6338 91.8818 27.8975C90.9346 28.1611 89.875 28.293 88.7031 28.293C87.6484 28.293 86.6084 28.1562 85.583 27.8828C84.5576 27.5996 83.625 27.1748 82.7852 26.6084C81.9551 26.042 81.291 25.3193 80.793 24.4404C80.2949 23.5615 80.0459 22.5215 80.0459 21.3203H84.4551C84.4551 21.9844 84.5576 22.5459 84.7627 23.0049C84.9678 23.4639 85.2559 23.835 85.627 24.1182C86.0078 24.4014 86.457 24.6064 86.9746 24.7334C87.502 24.8604 88.0781 24.9238 88.7031 24.9238C89.4648 24.9238 90.0898 24.8164 90.5781 24.6016C91.0762 24.3867 91.4424 24.0889 91.6768 23.708C91.9209 23.3271 92.043 22.8975 92.043 22.4189ZM108.962 6.67188V28H104.582V6.67188H108.962ZM115.524 6.67188V10.1143H98.1221V6.67188H115.524ZM139.021 24.5723V28H127.668V24.5723H139.021ZM129.104 6.67188V28H124.709V6.67188H129.104ZM137.541 15.3584V18.6982H127.668V15.3584H137.541ZM139.006 6.67188V10.1143H127.668V6.67188H139.006ZM152.688 22.4189C152.688 22.0381 152.629 21.6963 152.512 21.3936C152.404 21.0811 152.199 20.7979 151.896 20.5439C151.594 20.2803 151.169 20.0215 150.622 19.7676C150.075 19.5137 149.367 19.25 148.498 18.9766C147.531 18.6641 146.613 18.3125 145.744 17.9219C144.885 17.5312 144.123 17.0771 143.459 16.5596C142.805 16.0322 142.287 15.4219 141.906 14.7285C141.535 14.0352 141.35 13.2295 141.35 12.3115C141.35 11.4229 141.545 10.6172 141.936 9.89453C142.326 9.16211 142.873 8.53711 143.576 8.01953C144.279 7.49219 145.109 7.08691 146.066 6.80371C147.033 6.52051 148.093 6.37891 149.245 6.37891C150.817 6.37891 152.189 6.66211 153.361 7.22852C154.533 7.79492 155.441 8.57129 156.086 9.55762C156.74 10.5439 157.067 11.6719 157.067 12.9414H152.702C152.702 12.3164 152.57 11.7695 152.307 11.3008C152.053 10.8223 151.662 10.4463 151.135 10.1729C150.617 9.89941 149.963 9.7627 149.172 9.7627C148.41 9.7627 147.775 9.87988 147.268 10.1143C146.76 10.3389 146.379 10.6465 146.125 11.0371C145.871 11.418 145.744 11.8477 145.744 12.3262C145.744 12.6875 145.832 13.0146 146.008 13.3076C146.193 13.6006 146.467 13.874 146.828 14.1279C147.189 14.3818 147.634 14.6211 148.161 14.8457C148.688 15.0703 149.299 15.29 149.992 15.5049C151.154 15.8564 152.175 16.252 153.054 16.6914C153.942 17.1309 154.685 17.624 155.28 18.1709C155.876 18.7178 156.325 19.3379 156.628 20.0312C156.931 20.7246 157.082 21.5107 157.082 22.3896C157.082 23.3174 156.901 24.1475 156.54 24.8799C156.179 25.6123 155.656 26.2324 154.973 26.7402C154.289 27.248 153.474 27.6338 152.526 27.8975C151.579 28.1611 150.52 28.293 149.348 28.293C148.293 28.293 147.253 28.1562 146.228 27.8828C145.202 27.5996 144.27 27.1748 143.43 26.6084C142.6 26.042 141.936 25.3193 141.438 24.4404C140.939 23.5615 140.69 22.5215 140.69 21.3203H145.1C145.1 21.9844 145.202 22.5459 145.407 23.0049C145.612 23.4639 145.9 23.835 146.271 24.1182C146.652 24.4014 147.102 24.6064 147.619 24.7334C148.146 24.8604 148.723 24.9238 149.348 24.9238C150.109 24.9238 150.734 24.8164 151.223 24.6016C151.721 24.3867 152.087 24.0889 152.321 23.708C152.565 23.3271 152.688 22.8975 152.688 22.4189ZM168.376 20.3975H162.941V16.9697H168.376C169.216 16.9697 169.899 16.833 170.427 16.5596C170.954 16.2764 171.34 15.8857 171.584 15.3877C171.828 14.8896 171.95 14.3281 171.95 13.7031C171.95 13.0684 171.828 12.4775 171.584 11.9307C171.34 11.3838 170.954 10.9443 170.427 10.6123C169.899 10.2803 169.216 10.1143 168.376 10.1143H164.465V28H160.07V6.67188H168.376C170.046 6.67188 171.477 6.97461 172.668 7.58008C173.869 8.17578 174.787 9.00098 175.422 10.0557C176.057 11.1104 176.374 12.3164 176.374 13.6738C176.374 15.0508 176.057 16.2422 175.422 17.248C174.787 18.2539 173.869 19.0303 172.668 19.5771C171.477 20.124 170.046 20.3975 168.376 20.3975ZM185.646 10.3193L179.846 28H175.173L183.098 6.67188H186.071L185.646 10.3193ZM190.466 28L184.65 10.3193L184.182 6.67188H187.185L195.153 28H190.466ZM190.202 20.0605V23.5029H178.938V20.0605H190.202ZM214.489 6.67188V28H210.095L201.525 13.7031V28H197.131V6.67188H201.525L210.109 20.9834V6.67188H214.489ZM227.248 10.3193L221.447 28H216.774L224.699 6.67188H227.673L227.248 10.3193ZM232.067 28L226.252 10.3193L225.783 6.67188H228.786L236.755 28H232.067ZM231.804 20.0605V23.5029H220.539V20.0605H231.804Z" fill="#285CA7"/>
<path d="M17.2577 35H279L262.461 75H0L17.2577 35Z" fill="#285CA7"/>
<path d="M43.2539 56.6396H37.7754L37.7461 53.6221H42.3457C43.1562 53.6221 43.8203 53.5195 44.3379 53.3145C44.8555 53.0996 45.2412 52.792 45.4951 52.3916C45.7588 51.9814 45.8906 51.4834 45.8906 50.8975C45.8906 50.2334 45.7637 49.6963 45.5098 49.2861C45.2656 48.876 44.8799 48.5781 44.3525 48.3926C43.835 48.207 43.166 48.1143 42.3457 48.1143H39.2988V66H34.9043V44.6719H42.3457C43.5859 44.6719 44.6943 44.7891 45.6709 45.0234C46.6572 45.2578 47.4922 45.6143 48.1758 46.0928C48.8594 46.5713 49.3818 47.1768 49.7432 47.9092C50.1045 48.6318 50.2852 49.4912 50.2852 50.4873C50.2852 51.3662 50.085 52.1768 49.6846 52.9189C49.2939 53.6611 48.6738 54.2666 47.8242 54.7354C46.9844 55.2041 45.8857 55.4629 44.5283 55.5117L43.2539 56.6396ZM43.0635 66H36.5742L38.2881 62.5723H43.0635C43.835 62.5723 44.4648 62.4502 44.9531 62.2061C45.4414 61.9521 45.8027 61.6104 46.0371 61.1807C46.2715 60.751 46.3887 60.2578 46.3887 59.7012C46.3887 59.0762 46.2812 58.5342 46.0664 58.0752C45.8613 57.6162 45.5293 57.2646 45.0703 57.0205C44.6113 56.7666 44.0059 56.6396 43.2539 56.6396H39.0205L39.0498 53.6221H44.3232L45.334 54.8086C46.6328 54.7891 47.6777 55.0186 48.4688 55.4971C49.2695 55.9658 49.8506 56.5762 50.2119 57.3281C50.583 58.0801 50.7686 58.8857 50.7686 59.7451C50.7686 61.1123 50.4707 62.2646 49.875 63.2021C49.2793 64.1299 48.4053 64.8281 47.2529 65.2969C46.1104 65.7656 44.7139 66 43.0635 66ZM68.376 62.5723V66H57.0234V62.5723H68.376ZM58.459 44.6719V66H54.0645V44.6719H58.459ZM66.8965 53.3584V56.6982H57.0234V53.3584H66.8965ZM68.3613 44.6719V48.1143H57.0234V44.6719H68.3613ZM80.7686 44.6719V66H76.3887V44.6719H80.7686ZM87.3311 44.6719V48.1143H69.9287V44.6719H87.3311ZM99.6064 44.6719V66H95.2266V44.6719H99.6064ZM106.169 44.6719V48.1143H88.7666V44.6719H106.169ZM113.347 44.6719V66H108.967V44.6719H113.347ZM134.821 44.6719V66H130.427L121.857 51.7031V66H117.463V44.6719H121.857L130.441 58.9834V44.6719H134.821ZM155.549 54.8525V63.3047C155.217 63.7051 154.704 64.1396 154.011 64.6084C153.317 65.0674 152.424 65.4629 151.33 65.7949C150.236 66.127 148.913 66.293 147.36 66.293C145.983 66.293 144.729 66.0684 143.596 65.6191C142.463 65.1602 141.486 64.4912 140.666 63.6123C139.855 62.7334 139.23 61.6592 138.791 60.3896C138.352 59.1104 138.132 57.6504 138.132 56.0098V54.6768C138.132 53.0361 138.342 51.5762 138.762 50.2969C139.191 49.0176 139.802 47.9385 140.593 47.0596C141.384 46.1807 142.326 45.5117 143.42 45.0527C144.514 44.5938 145.729 44.3643 147.067 44.3643C148.923 44.3643 150.446 44.667 151.638 45.2725C152.829 45.8682 153.737 46.6982 154.362 47.7627C154.997 48.8174 155.388 50.0283 155.534 51.3955H151.271C151.164 50.6729 150.959 50.043 150.656 49.5059C150.354 48.9688 149.919 48.5488 149.353 48.2461C148.796 47.9434 148.073 47.792 147.185 47.792C146.452 47.792 145.798 47.9434 145.222 48.2461C144.655 48.5391 144.177 48.9736 143.786 49.5498C143.396 50.126 143.098 50.8389 142.893 51.6885C142.688 52.5381 142.585 53.5244 142.585 54.6475V56.0098C142.585 57.123 142.692 58.1094 142.907 58.9688C143.122 59.8184 143.439 60.5361 143.859 61.1221C144.289 61.6982 144.816 62.1328 145.441 62.4258C146.066 62.7188 146.794 62.8652 147.624 62.8652C148.317 62.8652 148.894 62.8066 149.353 62.6895C149.821 62.5723 150.197 62.4307 150.48 62.2646C150.773 62.0889 150.998 61.9229 151.154 61.7666V57.9873H147.141V54.8525H155.549ZM177.668 60.4189C177.668 60.0381 177.609 59.6963 177.492 59.3936C177.385 59.0811 177.18 58.7979 176.877 58.5439C176.574 58.2803 176.149 58.0215 175.603 57.7676C175.056 57.5137 174.348 57.25 173.479 56.9766C172.512 56.6641 171.594 56.3125 170.725 55.9219C169.865 55.5312 169.104 55.0771 168.439 54.5596C167.785 54.0322 167.268 53.4219 166.887 52.7285C166.516 52.0352 166.33 51.2295 166.33 50.3115C166.33 49.4229 166.525 48.6172 166.916 47.8945C167.307 47.1621 167.854 46.5371 168.557 46.0195C169.26 45.4922 170.09 45.0869 171.047 44.8037C172.014 44.5205 173.073 44.3789 174.226 44.3789C175.798 44.3789 177.17 44.6621 178.342 45.2285C179.514 45.7949 180.422 46.5713 181.066 47.5576C181.721 48.5439 182.048 49.6719 182.048 50.9414H177.683C177.683 50.3164 177.551 49.7695 177.287 49.3008C177.033 48.8223 176.643 48.4463 176.115 48.1729C175.598 47.8994 174.943 47.7627 174.152 47.7627C173.391 47.7627 172.756 47.8799 172.248 48.1143C171.74 48.3389 171.359 48.6465 171.105 49.0371C170.852 49.418 170.725 49.8477 170.725 50.3262C170.725 50.6875 170.812 51.0146 170.988 51.3076C171.174 51.6006 171.447 51.874 171.809 52.1279C172.17 52.3818 172.614 52.6211 173.142 52.8457C173.669 53.0703 174.279 53.29 174.973 53.5049C176.135 53.8564 177.155 54.252 178.034 54.6914C178.923 55.1309 179.665 55.624 180.261 56.1709C180.856 56.7178 181.306 57.3379 181.608 58.0312C181.911 58.7246 182.062 59.5107 182.062 60.3896C182.062 61.3174 181.882 62.1475 181.521 62.8799C181.159 63.6123 180.637 64.2324 179.953 64.7402C179.27 65.248 178.454 65.6338 177.507 65.8975C176.56 66.1611 175.5 66.293 174.328 66.293C173.273 66.293 172.233 66.1562 171.208 65.8828C170.183 65.5996 169.25 65.1748 168.41 64.6084C167.58 64.042 166.916 63.3193 166.418 62.4404C165.92 61.5615 165.671 60.5215 165.671 59.3203H170.08C170.08 59.9844 170.183 60.5459 170.388 61.0049C170.593 61.4639 170.881 61.835 171.252 62.1182C171.633 62.4014 172.082 62.6064 172.6 62.7334C173.127 62.8604 173.703 62.9238 174.328 62.9238C175.09 62.9238 175.715 62.8164 176.203 62.6016C176.701 62.3867 177.067 62.0889 177.302 61.708C177.546 61.3271 177.668 60.8975 177.668 60.4189ZM189.724 44.6719V66H185.344V44.6719H189.724ZM202.937 44.6719V66H198.557V44.6719H202.937ZM209.499 44.6719V48.1143H192.097V44.6719H209.499ZM226.315 62.5723V66H214.963V62.5723H226.315ZM216.398 44.6719V66H212.004V44.6719H216.398ZM224.836 53.3584V56.6982H214.963V53.3584H224.836ZM226.301 44.6719V48.1143H214.963V44.6719H226.301ZM239.982 60.4189C239.982 60.0381 239.924 59.6963 239.807 59.3936C239.699 59.0811 239.494 58.7979 239.191 58.5439C238.889 58.2803 238.464 58.0215 237.917 57.7676C237.37 57.5137 236.662 57.25 235.793 56.9766C234.826 56.6641 233.908 56.3125 233.039 55.9219C232.18 55.5312 231.418 55.0771 230.754 54.5596C230.1 54.0322 229.582 53.4219 229.201 52.7285C228.83 52.0352 228.645 51.2295 228.645 50.3115C228.645 49.4229 228.84 48.6172 229.23 47.8945C229.621 47.1621 230.168 46.5371 230.871 46.0195C231.574 45.4922 232.404 45.0869 233.361 44.8037C234.328 44.5205 235.388 44.3789 236.54 44.3789C238.112 44.3789 239.484 44.6621 240.656 45.2285C241.828 45.7949 242.736 46.5713 243.381 47.5576C244.035 48.5439 244.362 49.6719 244.362 50.9414H239.997C239.997 50.3164 239.865 49.7695 239.602 49.3008C239.348 48.8223 238.957 48.4463 238.43 48.1729C237.912 47.8994 237.258 47.7627 236.467 47.7627C235.705 47.7627 235.07 47.8799 234.562 48.1143C234.055 48.3389 233.674 48.6465 233.42 49.0371C233.166 49.418 233.039 49.8477 233.039 50.3262C233.039 50.6875 233.127 51.0146 233.303 51.3076C233.488 51.6006 233.762 51.874 234.123 52.1279C234.484 52.3818 234.929 52.6211 235.456 52.8457C235.983 53.0703 236.594 53.29 237.287 53.5049C238.449 53.8564 239.47 54.252 240.349 54.6914C241.237 55.1309 241.979 55.624 242.575 56.1709C243.171 56.7178 243.62 57.3379 243.923 58.0312C244.226 58.7246 244.377 59.5107 244.377 60.3896C244.377 61.3174 244.196 62.1475 243.835 62.8799C243.474 63.6123 242.951 64.2324 242.268 64.7402C241.584 65.248 240.769 65.6338 239.821 65.8975C238.874 66.1611 237.814 66.293 236.643 66.293C235.588 66.293 234.548 66.1562 233.522 65.8828C232.497 65.5996 231.564 65.1748 230.725 64.6084C229.895 64.042 229.23 63.3193 228.732 62.4404C228.234 61.5615 227.985 60.5215 227.985 59.3203H232.395C232.395 59.9844 232.497 60.5459 232.702 61.0049C232.907 61.4639 233.195 61.835 233.566 62.1182C233.947 62.4014 234.396 62.6064 234.914 62.7334C235.441 62.8604 236.018 62.9238 236.643 62.9238C237.404 62.9238 238.029 62.8164 238.518 62.6016C239.016 62.3867 239.382 62.0889 239.616 61.708C239.86 61.3271 239.982 60.8975 239.982 60.4189Z" fill="white"/>
</svg>
