<svg viewBox="0 0 106 40" fill="none" xmlns="http://www.w3.org/2000/svg">
                    <g clip-path="url(#a)">
                        <g clip-path="url(#b)">
                            <path d="m23.665 10.5-5.167-7.595-5.167 7.595h10.334z" fill="#668D3C"></path>
                            <path d="M28.834 10.5 30.886 2 18.5 10.5h10.334zM8.166 10.5 6.113 2 18.5 10.5H8.166z" fill="#9CB844"></path>
                            <path d="m18.5 27.5 5.167 8.5 5.166-8.5H18.5z" fill="#58237A"></path>
                            <path d="m13.334 36 5.166-8.5 5.167 8.5H13.333z" fill="#49267A"></path>
                            <path d="m8.166 27.5 5.167 8.5 5.167-8.5H8.166z" fill="#58237A"></path>
                            <path d="m18.5 10.5 5.167 8.5 5.166-8.5H18.5zM8.166 10.5l5.167 8.5 5.167-8.5H8.166z" fill="#B53481"></path>
                            <path d="m18.5 27.5 5.167-8.5 5.166 8.5H18.5zM8.166 27.5l5.167-8.5 5.167 8.5H8.166z" fill="#6E297D"></path>
                            <path d="m13.334 19 5.166-8.5 5.167 8.5H13.333z" fill="#DA7396"></path>
                            <path d="m23.666 19 5.167-8.5L34 19H23.666zM3 19.002l5.167-8.5 5.167 8.5H3z" fill="#8F3682"></path>
                            <path d="m13.334 19 5.166 8.5 5.167-8.5H13.333z" fill="#A6488B"></path>
                            <path d="m23.666 19 5.167 8.5L34 19H23.666zM3 19l5.167 8.5 5.167-8.5H3z" fill="#753582"></path>
                        </g>
                        <path fill-rule="evenodd" clip-rule="evenodd" d="M79.963 22.476c0-.289.112-.609.477-.609h.39l6.48 7.17v-6.611c0-.242.23-.457.478-.457h.958c.25 0 .477.217.477.457v10.067c0 .242-.23.457-.477.457h-.392l-6.479-7.365v6.806c0 .243-.23.458-.477.458h-.959c-.25 0-.476-.218-.476-.457v-9.916zm-38.128 5.136c0-3.03 2.624-5.643 5.801-5.643 1.643 0 2.744.527 3.832 1.462l.007.005c.167.16.169.456.004.618l-.643.717c-.169.161-.46.155-.64.008-.722-.592-1.646-.981-2.56-.981-2.142 0-3.783 1.756-3.783 3.712 0 1.957 1.64 3.712 3.783 3.712 1.12 0 1.83-.384 2.557-.977a.495.495 0 0 1 .643.005l.745.711c.17.162.17.461 0 .623-1.1 1.051-2.529 1.468-3.945 1.468-3.17 0-5.802-2.402-5.802-5.44zm22.79-2.746c0-1.197 1.024-2.897 3.566-2.897 1.24 0 2.223.47 2.69.752.102.062.213.127.3.21.131.126.36.344.13.686a17.63 17.63 0 0 1-.436.628c-.215.293-.42.308-.732.132-.62-.35-1.316-.68-2.059-.68-1.199 0-1.653.753-1.653 1.17 0 .729.564 1.189 1.922 1.688h.004c1.824.718 3.4 1.583 3.4 3.497 0 1.63-1.585 3-3.673 3-1.266 0-2.547-.39-3.432-1.288-.208-.21-.154-.444-.01-.662.166-.249.262-.391.44-.633a.54.54 0 0 1 .77-.118c.682.494 1.452.973 2.339.973 1.007 0 1.653-.568 1.653-1.272 0-.81-.77-1.289-2.245-1.893-1.617-.618-2.974-1.49-2.974-3.293zm10.383-2.795c-.247 0-.477.215-.477.457v9.864c0 .24.227.457.477.457h1.065c.248 0 .477-.215.477-.457v-9.864c0-.24-.227-.457-.477-.457h-1.065zm-16.567.215c-.197-.366-.656-.402-.841-.003l-4.772 9.922c-.141.265.093.63.403.636.356.008 1.008.008 1.008.008.217 0 .391-.133.474-.316.3-.668.603-1.251.907-1.922h4.907l.905 1.92c.023.201.236.318.475.318h.958c.344 0 .497-.35.355-.625l-4.779-9.938zm-2.146 6.7 1.726-3.662 1.726 3.662h-3.452zm41.395-7.017c-3.177 0-5.695 2.51-5.695 5.541 0 3.034 2.522 5.44 5.695 5.44 3.279 0 5.802-2.404 5.802-5.44 0-3.034-2.627-5.541-5.802-5.541zm-3.89 5.44c0-2.05 1.74-3.713 3.89-3.713 2.151 0 3.889 1.662 3.889 3.713 0 2.05-1.738 3.712-3.889 3.712-2.15 0-3.89-1.662-3.89-3.712z" fill="#fff"></path>
                        <path fill-rule="evenodd" clip-rule="evenodd" d="M103.655 17.274 98.927 7.182c-.19-.4-.926-.324-1.095.046L93.11 17.306c-.13.315.289.574.562.574h1.025c.2 0 .378-.134.456-.307l.874-1.963h4.826l.873 1.96c.083.185.227.31.458.31h1.025c.347 0 .612-.278.445-.606zM61.317 7.228l4.599 10.047c.167.328-.099.605-.445.605h-1.026c-.23 0-.372-.116-.457-.31l-.873-1.96H58.29l-.874 1.963a.516.516 0 0 1-.456.307h-1.026c-.346 0-.612-.278-.444-.606l4.706-10.046c.207-.38.905-.432 1.122 0zm7.128-.108c-.275 0-.46.178-.46.444v9.873c0 .265.185.443.46.443h5.538c.275 0 .46-.177.46-.443v-.79c0-.266-.185-.444-.46-.444H69.93V7.564c0-.266-.184-.444-.46-.444h-1.025zm8.41 0c-.276 0-.46.178-.46.444v9.873c0 .265.184.443.46.443h1.025c.275 0 .459-.177.459-.443V7.564c0-.266-.184-.444-.46-.444h-1.025zM43.777 17.55l1.068-6.356 2.651 6.523c.082.202.255.262.437.262h.41c.232 0 .377-.109.458-.313l2.558-6.293 1.038 6.177c.013.194.276.33.459.33h1.025c.278 0 .515-.214.46-.457l-1.96-10.13c-.088-.385-.918-.445-1.08 0l-3.113 7.41-3.203-7.421c-.212-.449-.98-.396-1.1.066l-2.052 10.088c0 .266.184.444.46.444h1.025c.183 0 .445-.13.46-.33zm19.06-3.224-2.191-4.551-2.076 4.551h4.267zM82.29 7.021c-.276 0-.46.178-.46.444v10.169c0 .265.184.443.46.443h1.025c.276 0 .46-.178.46-.443v-6.907l6.547 7.45h.48c.275 0 .46-.179.46-.445V7.662c0-.266-.185-.443-.46-.443h-1.026c-.275 0-.46.177-.46.443v6.618L82.77 7.021h-.48zm16.042 2.666 2.244 4.639h-4.369l2.125-4.639z" fill="#EB6C97"></path>
                    </g>
                    <defs>
                        <clipPath id="a"><path fill="#fff" d="M0 0h106v40H0z"></path></clipPath>
                        <clipPath id="b">
                            <path fill="#fff" transform="translate(3 2)" d="M0 0h31v34H0z"></path>
                        </clipPath>
                    </defs>
                </svg>