<svg width="100" height="26" viewBox="0 0 100 26" fill="none" xmlns="http://www.w3.org/2000/svg">
<path d="M17.1376 18.2863C16.8162 17.9992 16.464 17.6304 16.0822 17.179C15.8388 16.8835 15.5563 16.5183 15.2361 16.0846C14.9146 15.6509 14.6062 15.216 14.3107 14.7822C14.0152 14.3485 13.7671 13.9798 13.5685 13.6749C13.3688 13.3712 13.2601 13.2104 13.2423 13.1927C12.9646 12.7755 12.6124 12.3548 12.187 11.9293C11.7615 11.5039 11.3136 11.2132 10.8456 11.056C11.784 10.9862 12.5734 10.7038 13.2163 10.2098C13.8592 9.71461 14.345 9.09416 14.6759 8.34725C15.0056 7.60034 15.1711 6.84516 15.1711 6.08052C15.1711 5.22961 15.0186 4.4957 14.7149 3.87879C14.4112 3.26307 13.9892 2.75488 13.4515 2.35425C12.9126 1.95479 12.2922 1.65934 11.589 1.46907C10.8858 1.27761 10.1424 1.18188 9.36125 1.18188H1.04834C1.04834 1.18188 2.22543 1.60379 2.54689 1.92407C2.86834 2.24552 3.03734 2.63198 3.05507 3.08343V17.517C3.03734 17.9684 2.86834 18.3549 2.54689 18.6763C2.22543 18.9978 1.04834 19.4185 1.04834 19.4185H8.2137C8.2137 19.4185 7.05788 18.9978 6.72816 18.6763C6.39843 18.3549 6.23298 17.9684 6.23298 17.517V2.22425H6.63716C6.90661 2.22425 7.22334 2.21952 7.58852 2.21125C7.9537 2.20298 8.30116 2.20652 8.63088 2.22425C9.51725 2.2597 10.2464 2.58825 10.8196 3.21461C11.3928 3.83979 11.706 4.76043 11.758 5.97652C11.7745 6.23652 11.7662 6.48943 11.732 6.7317C11.6965 6.97516 11.6622 7.17488 11.628 7.33088C11.4542 8.09552 11.1765 8.68998 10.7948 9.11543C10.4131 9.54088 9.98289 9.83161 9.50543 9.98879C9.02798 10.1448 8.55407 10.2322 8.08489 10.25C7.84143 10.2677 7.62398 10.2724 7.4337 10.263C7.24225 10.2547 7.12998 10.25 7.0957 10.25C7.0957 10.25 7.83316 10.7192 8.16407 11.0312C8.49379 11.3443 8.79752 11.7521 9.07525 12.2555C9.12725 12.3772 9.22652 12.5852 9.37543 12.8807C9.52316 13.1762 9.70516 13.5106 9.92261 13.8841C10.1401 14.2575 10.3611 14.644 10.5868 15.0434C10.8125 15.4429 11.0205 15.8033 11.212 16.1248C11.4034 16.4462 11.5512 16.685 11.6552 16.841C12.0369 17.4142 12.4883 17.8916 13.0095 18.2745C13.5307 18.6562 14.1429 18.9434 14.8461 19.1337C15.5492 19.3252 16.3529 19.4209 17.2558 19.4209H19.4185C19.4185 19.4209 18.5322 19.0864 18.1682 18.9387C17.803 18.791 17.4602 18.5735 17.1388 18.2875L17.1376 18.2863Z" fill="white"/>
<path d="M32.9504 6.47405C32.181 5.80278 31.2722 5.28751 30.2251 4.92705C29.1768 4.5666 28.0316 4.38696 26.7872 4.38696C25.5427 4.38696 24.3964 4.5666 23.3493 4.92705C22.301 5.28751 21.3969 5.80278 20.6358 6.47405C19.8747 7.14533 19.285 7.95133 18.8678 8.89324C18.4506 9.83515 18.2415 10.8941 18.2415 12.0735C18.2415 13.253 18.4506 14.3119 18.8678 15.2538C19.285 16.1957 19.8747 17.0017 20.6358 17.673C21.3969 18.3442 22.301 18.8607 23.3493 19.22C24.3964 19.5804 25.5427 19.7601 26.7872 19.7601C28.0316 19.7601 29.1768 19.5804 30.2251 19.22C31.2722 18.8595 32.181 18.3442 32.9504 17.673C33.7197 17.0017 34.313 16.1957 34.7302 15.2538C35.1474 14.3131 35.3565 13.253 35.3565 12.0735C35.3565 10.8941 35.1474 9.83515 34.7302 8.89324C34.313 7.95251 33.7197 7.14533 32.9504 6.47405ZM31.5381 15.6698C31.0713 16.6932 30.4284 17.4827 29.6105 18.0393C28.7915 18.596 27.8508 18.8737 26.7872 18.8737C25.7235 18.8737 24.7816 18.596 23.9626 18.0393C23.1436 17.4827 22.5055 16.6932 22.0469 15.6698C21.5884 14.6475 21.3591 13.448 21.3591 12.0723C21.3591 10.6813 21.5884 9.47824 22.0469 8.46187C22.5055 7.44669 23.1436 6.66196 23.9626 6.10414C24.7816 5.54751 25.7224 5.2686 26.7872 5.2686C27.852 5.2686 28.7927 5.54751 29.6105 6.10414C30.4295 6.66078 31.0713 7.44669 31.5381 8.46187C32.0049 9.47705 32.2377 10.6801 32.2377 12.0723C32.2377 13.448 32.0049 14.6463 31.5381 15.6698Z" fill="white"/>
<path d="M54.8152 17.9046H53.6712V6.25302C53.6712 5.87602 53.806 5.5652 54.0766 5.31938C54.3472 5.07356 55.3412 4.70483 55.3412 4.70483H49.1035C49.1035 4.70483 50.0986 5.07356 50.3681 5.31938C50.6387 5.5652 50.7817 5.87602 50.7982 6.25302V17.8927C50.7817 18.2532 50.6422 18.5605 50.3811 18.8134C50.1187 19.0675 49.1047 19.4397 49.1047 19.4397H56.7747C58.0629 19.4397 59.279 18.85 60.0767 17.8384L62.1035 15.2656C62.1035 15.2656 59.11 17.9057 54.8164 17.9057L54.8152 17.9046Z" fill="white"/>
<path d="M41.8162 17.9046H40.6722V6.28256C40.6722 5.86302 40.8069 5.5652 41.0776 5.31938C41.3482 5.07356 42.3421 4.70483 42.3421 4.70483H36.1045C36.1045 4.70483 37.0996 5.07356 37.369 5.31938C37.6397 5.5652 37.7827 5.87602 37.7992 6.25302V17.8927C37.7827 18.2532 37.6432 18.5605 37.382 18.8134C37.1197 19.0675 36.1057 19.4397 36.1057 19.4397H43.7757C45.0639 19.4397 46.2799 18.85 47.0777 17.8384L49.1045 15.2656C49.1045 15.2656 46.1109 17.9057 41.8174 17.9057L41.8162 17.9046Z" fill="white"/>
<path d="M89.7237 12.9114C90.5155 12.1125 91.2092 11.9021 91.5389 11.8419C91.208 11.7804 90.506 11.5641 89.7119 10.7546C88.9484 9.97577 88.5241 9.09886 88.4615 8.7644C88.3977 9.10122 87.9734 9.97222 87.217 10.7463C86.4217 11.5606 85.7173 11.7792 85.384 11.8419C85.7031 11.895 86.424 12.0924 87.2277 12.9114C88.0006 13.6997 88.4083 14.5955 88.4615 14.9193C88.5218 14.5884 88.9448 13.6973 89.7237 12.9114Z" fill="white"/>
<path d="M67.015 13.7989L69.0891 16.744L63.8489 23.5407C63.2816 24.3419 62.361 24.817 61.3789 24.817H57.2449C58.5224 24.7154 59.4064 23.9094 59.748 23.4556C62.0761 20.3628 64.6856 16.8918 67.015 13.7989ZM97.9077 12.831C98.3331 11.6421 98.3048 10.3197 97.9715 9.1024C97.3215 6.72458 95.6906 4.59613 93.5645 3.35522C92.1061 2.50431 90.4386 2.07886 88.5607 2.07886C87.152 2.07886 85.8319 2.32349 84.5992 2.81277C83.3666 3.30204 82.2758 3.98631 81.3268 4.86677C81.1625 5.01922 81.0065 5.17877 80.8552 5.34186C83.2189 4.07495 85.9489 3.56795 88.5784 4.19195C91.4987 4.88568 93.7843 6.92077 94.5679 9.86704C94.8633 10.9768 94.9366 12.1373 94.8373 13.2789C94.7877 13.8427 94.6967 14.4029 94.569 14.9548C94.4757 15.3566 94.3965 16.1425 94.0644 16.4167C94.2949 16.2843 94.562 16.2666 94.8007 16.159C95.0004 16.0692 95.1954 15.9699 95.3821 15.8565C95.7627 15.626 96.1184 15.3412 96.441 15.0351C96.8937 14.6049 97.2849 14.1074 97.5827 13.559C97.7091 13.3262 97.819 13.0828 97.9089 12.8322L97.9077 12.831ZM81.0136 21.5257H77.2932C76.3111 21.5257 75.3917 21.0494 74.8232 20.2493L70.8263 14.5908C70.1267 13.5933 69.4259 12.5959 68.7262 11.5984C66.8176 8.89322 64.909 6.18922 62.9991 3.48404C62.2168 2.43931 61.1106 2.09658 61.1106 2.09658H64.6738C65.6559 2.09658 66.5753 2.57286 67.1438 3.37295L70.8181 8.5564L74.4923 3.37295C75.0596 2.57168 75.9802 2.09658 76.9623 2.09658H80.5421C80.5421 2.09658 79.417 2.42986 78.5341 3.62586C76.6551 6.27668 74.776 8.92749 72.8969 11.5783C74.8256 14.2989 76.7543 17.0194 78.6831 19.7399C79.105 20.3356 80.2891 21.5257 81.0136 21.5257ZM85.2516 18.4577C88.374 20.5672 92.6013 20.124 95.7863 18.3844C95.6161 18.5747 95.4389 18.7614 95.2533 18.9375C94.3138 19.8286 93.2277 20.5129 91.9951 20.9915C90.7624 21.4701 89.4518 21.71 88.062 21.71C84.4562 21.71 81.2381 19.9184 79.4725 16.7464C78.7031 15.3637 78.2623 13.7659 78.4207 12.1917C78.6039 10.3705 79.6403 8.7124 81.263 7.84258C81.5265 7.70195 81.7995 7.57904 82.0796 7.47622C82.1493 7.45022 82.576 7.37104 82.6043 7.31195C82.5795 7.36158 82.5535 7.40886 82.5287 7.45968C82.5062 7.50695 82.485 7.5554 82.4625 7.60386C81.7487 9.21704 81.5809 11.1859 81.8302 12.9232C82.0772 14.6439 82.8773 16.289 84.1111 17.5181C84.3818 17.7876 84.6737 18.0369 84.981 18.265C85.0696 18.33 85.1594 18.3939 85.2504 18.4553L85.2516 18.4577Z" fill="url(#paint0_linear_25589_6983)"/>
<defs>
<linearGradient id="paint0_linear_25589_6983" x1="77.7352" y1="2.07768" x2="77.7352" y2="24.8182" gradientUnits="userSpaceOnUse">
<stop stop-color="#E9C27A"/>
<stop offset="0.26" stop-color="#D8B066"/>
<stop offset="0.734" stop-color="#BE9647"/>
<stop offset="1" stop-color="#B58C3C"/>
</linearGradient>
</defs>
</svg>
