<svg width="260" height="40" viewBox="0 0 260 40" fill="none" xmlns="http://www.w3.org/2000/svg">
<g clip-path="url(#clip0)">
<path d="M109 14.3151L107.639 20.5294L94.4846 32.3081L107.639 31.8207L107.309 40.2283L81 41L81.0828 33.161L89.2063 22.6414L81.8248 23.4944L81.0412 14.0308L81.7836 12L107.392 12.2437L109 14.3151Z" fill="url(#paint0_linear)"/>
<path d="M192.874 11.8089L174.991 14.0111L174.359 12.1729L156.558 14.3651L156.72 11.8089L155.97 11L142.917 11.0809L142 13.0223L144.002 39.6764L154.969 39.3931L155.992 23.2788L161.724 23.5383L162.308 36.7238L173.275 37.1284L174.389 22.9094L180.239 23.1743L180.823 39.5955L191.79 40L194 13.7099L192.874 11.8089Z" fill="url(#paint1_linear)"/>
<path d="M208.818 22.7049L208.01 13.3196L208.818 11.8032L225.99 12.0081L227 13.7295L224.939 40L195 39.6721V1.4754L196.091 0L206.556 0.12295L207.485 1.76229L207.323 30.2868L214.111 30.4917L213.707 22.5819L208.818 22.7049Z" fill="url(#paint2_linear)"/>
<path d="M75.866 13.3157L74.7896 12L60.2327 12.2567L59.6324 16.3674L58.6391 12.2451L51.969 12.3266L50.1469 13.1281L48 39.0984L49.325 41L59.1211 40.5672L60.088 38.8572L60.2273 35.4564L68.9968 34.2639L69.018 37.9355L69.5864 40.1255L79.4562 39.9234L80 37.8367L75.866 13.3157ZM60.4996 28.8086L60.764 22.3469L67.8032 22.1201L68.3286 28.122L60.4996 28.8086Z" fill="url(#paint3_linear)"/>
<path d="M18.1461 26.0891L18.7183 6.42826L29.467 6.01522L29.7122 26.2131L33.8809 28.6913L45.161 3L47 5.80869L45.774 40.339L33.5539 41L24.6852 34.6391L13.773 40.2564L3.1878 40.7107L0 6.38695L1.96175 3.57826L14.0591 28.4848L18.1461 26.0891Z" fill="url(#paint4_linear)"/>
<path d="M18.2537 23.1702L18.8283 3.6162L29.6231 3.2054L29.8693 23.2935L34.0559 25.7583L34.5895 3.4108L45.3844 3L46 37.343L33.7276 38L24.8208 31.6738L13.8619 37.2194L3.06716 37.6302L2 3.53404L14.847 3.45188L14.1492 25.5529L18.2537 23.1702Z" fill="url(#paint5_linear)"/>
<path d="M60.2632 34.5983L68.9835 33.1927L69.018 37.9552L80 37.8563L74.7896 12L61.0815 12.2453L59.6324 16.3708L58.6391 12.2453L51.3871 12.3269L48 39L60.088 38.8775L60.2632 34.5983ZM60.4996 28.8213L60.7916 21.6809L67.7461 21.4766L68.3286 28.1342L60.4996 28.8213Z" fill="url(#paint6_linear)"/>
<path d="M137.866 13.3157L136.79 12L122.233 12.2567L121.632 16.3674L120.639 12.2451L113.969 12.3266L112.147 13.1281L110 39.0984L111.325 41L121.121 40.5672L122.088 38.8572L122.227 35.4564L130.997 34.2639L131.018 37.9355L131.586 40.1255L141.456 39.9234L142 37.8367L137.866 13.3157ZM122.5 28.8086L122.764 22.3469L129.803 22.1201L130.329 28.122L122.5 28.8086Z" fill="url(#paint7_linear)"/>
<path d="M122.263 34.5983L130.983 33.1927L131.018 37.9552L142 37.8563L136.79 12L123.082 12.2453L121.632 16.3708L120.639 12.2453L113.387 12.3269L110 39L122.088 38.8775L122.263 34.5983ZM122.5 28.8213L122.792 21.6809L129.746 21.4766L130.329 28.1342L122.5 28.8213Z" fill="url(#paint8_linear)"/>
<path d="M255.866 13.3157L254.79 12L240.233 12.2567L239.632 16.3674L238.639 12.2451L231.969 12.3266L230.147 13.1281L228 39.0984L229.325 41L239.121 40.5672L240.088 38.8572L240.227 35.4564L248.997 34.2639L249.018 37.9355L249.586 40.1255L259.456 39.9234L260 37.8367L255.866 13.3157ZM240.5 28.8086L240.764 22.3469L247.803 22.1201L248.329 28.122L240.5 28.8086Z" fill="url(#paint9_linear)"/>
<path d="M240.263 34.5983L248.983 33.1927L249.018 37.9552L260 37.8563L254.79 12L241.082 12.2453L239.632 16.3708L238.639 12.2453L231.387 12.3269L228 39L240.088 38.8775L240.263 34.5983ZM240.5 28.8213L240.792 21.6809L247.746 21.4766L248.329 28.1342L240.5 28.8213Z" fill="url(#paint10_linear)"/>
<path d="M107.666 12.2846L108 18.506L94.6674 30.2981L108 29.8102L107.666 38.2274L81 39L81.0839 31.1521L93.6223 20.9051L81.7943 21.4744L81.7108 12L107.666 12.2846Z" fill="url(#paint11_linear)"/>
<path d="M174.263 12.0929L174.259 12.1366L156.01 12.4126L156.064 11L143 11.081L144.085 37.6761L155.062 37.3926L155.676 21.2059L161.823 21.4842L162.407 34.6806L173.384 35.0854L174.055 20.8932L180.271 21.1604L180.897 37.5952L191.873 38L193 11.8096L174.263 12.0929Z" fill="url(#paint12_linear)"/>
<path d="M208.782 20.7235L208.823 11.8185L226 12.0237L224.949 38L195 37.6716L196.051 0L206.559 0.123109L207.246 28.2742L214.037 28.4794L213.632 20.5593L208.782 20.7235Z" fill="url(#paint13_linear)"/>
</g>
<defs>
<linearGradient id="paint0_linear" x1="95" y1="5.13588" x2="95" y2="40.4725" gradientUnits="userSpaceOnUse">
<stop stop-color="#F2B600"/>
<stop offset="1" stop-color="#FF7800"/>
</linearGradient>
<linearGradient id="paint1_linear" x1="168" y1="1.11238" x2="168" y2="39.551" gradientUnits="userSpaceOnUse">
<stop stop-color="#F2B600"/>
<stop offset="1" stop-color="#FF7800"/>
</linearGradient>
<linearGradient id="paint2_linear" x1="211" y1="3.96176" x2="211" y2="41.1292" gradientUnits="userSpaceOnUse">
<stop stop-color="#F2B600"/>
<stop offset="1" stop-color="#FF7800"/>
</linearGradient>
<linearGradient id="paint3_linear" x1="275.974" y1="53.743" x2="25.5318" y2="20.9596" gradientUnits="userSpaceOnUse">
<stop stop-color="#F2B600"/>
<stop offset="1" stop-color="#FF7800"/>
</linearGradient>
<linearGradient id="paint4_linear" x1="23.5" y1="0.976086" x2="23.5" y2="38.6905" gradientUnits="userSpaceOnUse">
<stop stop-color="#F2B600"/>
<stop offset="1" stop-color="#FF7800"/>
</linearGradient>
<linearGradient id="paint5_linear" x1="24" y1="3.4108" x2="24" y2="37.4805" gradientUnits="userSpaceOnUse">
<stop stop-color="#FCFEFE"/>
<stop offset="0.0685897" stop-color="#FCFE7E"/>
<stop offset="1" stop-color="#F4D642"/>
</linearGradient>
<linearGradient id="paint6_linear" x1="64" y1="0.972808" x2="64" y2="38.2742" gradientUnits="userSpaceOnUse">
<stop stop-color="#FCFEFE"/>
<stop offset="0.0685897" stop-color="#FCFE7E"/>
<stop offset="1" stop-color="#F4D642"/>
</linearGradient>
<linearGradient id="paint7_linear" x1="337.974" y1="53.743" x2="87.5318" y2="20.9596" gradientUnits="userSpaceOnUse">
<stop stop-color="#F2B600"/>
<stop offset="1" stop-color="#FF7800"/>
</linearGradient>
<linearGradient id="paint8_linear" x1="126" y1="0.972808" x2="126" y2="38.2742" gradientUnits="userSpaceOnUse">
<stop stop-color="#FCFEFE"/>
<stop offset="0.0685897" stop-color="#FCFE7E"/>
<stop offset="1" stop-color="#F4D642"/>
</linearGradient>
<linearGradient id="paint9_linear" x1="455.974" y1="53.743" x2="205.532" y2="20.9596" gradientUnits="userSpaceOnUse">
<stop stop-color="#F2B600"/>
<stop offset="1" stop-color="#FF7800"/>
</linearGradient>
<linearGradient id="paint10_linear" x1="244" y1="0.972808" x2="244" y2="38.2742" gradientUnits="userSpaceOnUse">
<stop stop-color="#FCFEFE"/>
<stop offset="0.0685897" stop-color="#FCFE7E"/>
<stop offset="1" stop-color="#F4D642"/>
</linearGradient>
<linearGradient id="paint11_linear" x1="94.5" y1="4.92472" x2="94.5" y2="37.1846" gradientUnits="userSpaceOnUse">
<stop stop-color="#FCFEFE"/>
<stop offset="0.0685897" stop-color="#FCFE7E"/>
<stop offset="1" stop-color="#F4D642"/>
</linearGradient>
<linearGradient id="paint12_linear" x1="168" y1="0.524528" x2="168" y2="38.1436" gradientUnits="userSpaceOnUse">
<stop stop-color="#FCFEFE"/>
<stop offset="0.0685897" stop-color="#FCFE7E"/>
<stop offset="1" stop-color="#F4D642"/>
</linearGradient>
<linearGradient id="paint13_linear" x1="210.5" y1="3.69329" x2="210.5" y2="38.2029" gradientUnits="userSpaceOnUse">
<stop stop-color="#FCFEFE"/>
<stop offset="0.0685897" stop-color="#FCFE7E"/>
<stop offset="1" stop-color="#F4D642"/>
</linearGradient>
<clipPath id="clip0">
<rect width="260" height="40" fill="white"/>
</clipPath>
</defs>
</svg>
